name Walk_125 02
datacolumns 19
datarows 32
range 3.220000 3.235500
endheader
time	ground_force_vx	ground_force_vy	ground_force_vz	ground_force_px	ground_force_py	ground_force_pz	ground_force_vx	ground_force_vy	ground_force_vz	ground_force_px	ground_force_py	ground_force_pz	ground_torque_x	ground_torque_y	ground_torque_z	ground_torque_x	ground_torque_y	ground_torque_z
3.220000	-6.995806	63.740184	-0.038649	1.318614	0.000000	-0.457144	-131.071498	846.344072	69.938131	1.380828	0.000000	-0.527650	0.000000	1.810272	0.000000	0.000000	1.613324	0.000000	
3.220500	-6.830997	63.433662	-0.033265	1.320148	0.000000	-0.457469	-130.575587	846.478454	69.659898	1.380337	0.000000	-0.527671	0.000000	1.818791	0.000000	0.000000	1.601442	0.000000	
3.221000	-6.662310	63.138464	-0.032400	1.321607	0.000000	-0.457789	-130.075369	846.586937	69.378542	1.379847	0.000000	-0.527692	0.000000	1.827505	0.000000	0.000000	1.589709	0.000000	
3.221500	-6.490248	62.854170	-0.035813	1.322990	0.000000	-0.458103	-129.571037	846.669550	69.094549	1.379357	0.000000	-0.527713	0.000000	1.836358	0.000000	0.000000	1.578149	0.000000	
3.222000	-6.315302	62.580362	-0.043252	1.324294	0.000000	-0.458410	-129.062803	846.726358	68.808407	1.378868	0.000000	-0.527733	0.000000	1.845297	0.000000	0.000000	1.566787	0.000000	
3.222500	-6.137957	62.316633	-0.054452	1.325519	0.000000	-0.458710	-128.550896	846.757465	68.520603	1.378379	0.000000	-0.527754	0.000000	1.854272	0.000000	0.000000	1.555648	0.000000	
3.223000	-5.958687	62.062578	-0.069138	1.326665	0.000000	-0.459003	-128.035558	846.763006	68.231618	1.377892	0.000000	-0.527775	0.000000	1.863237	0.000000	0.000000	1.544754	0.000000	
3.223500	-5.777956	61.817796	-0.087026	1.327730	0.000000	-0.459287	-127.517045	846.743151	67.941934	1.377405	0.000000	-0.527795	0.000000	1.872148	0.000000	0.000000	1.534128	0.000000	
3.224000	-5.596213	61.581892	-0.107822	1.328713	0.000000	-0.459564	-126.995625	846.698100	67.652026	1.376919	0.000000	-0.527816	0.000000	1.880963	0.000000	0.000000	1.523791	0.000000	
3.224500	-5.413896	61.354474	-0.131227	1.329616	0.000000	-0.459831	-126.471575	846.628081	67.362362	1.376433	0.000000	-0.527836	0.000000	1.889644	0.000000	0.000000	1.513766	0.000000	
3.225000	-5.231428	61.135154	-0.156937	1.330437	0.000000	-0.460089	-125.945179	846.533351	67.073405	1.375949	0.000000	-0.527857	0.000000	1.898155	0.000000	0.000000	1.504072	0.000000	
3.225500	-5.049215	60.923546	-0.184640	1.331176	0.000000	-0.460338	-125.416729	846.414190	66.785610	1.375465	0.000000	-0.527877	0.000000	1.906461	0.000000	0.000000	1.494728	0.000000	
3.226000	-4.867649	60.719269	-0.214023	1.331834	0.000000	-0.460577	-124.886520	846.270900	66.499421	1.374983	0.000000	-0.527898	0.000000	1.914533	0.000000	0.000000	1.485752	0.000000	
3.226500	-4.687103	60.521943	-0.244772	1.332411	0.000000	-0.460805	-124.354848	846.103808	66.215270	1.374502	0.000000	-0.527918	0.000000	1.922338	0.000000	0.000000	1.477162	0.000000	
3.227000	-4.507933	60.331190	-0.276569	1.332907	0.000000	-0.461023	-123.822012	845.913255	65.933581	1.374021	0.000000	-0.527939	0.000000	1.929850	0.000000	0.000000	1.468974	0.000000	
3.227500	-4.330478	60.146637	-0.309100	1.333324	0.000000	-0.461229	-123.288309	845.699603	65.654760	1.373541	0.000000	-0.527959	0.000000	1.937042	0.000000	0.000000	1.461203	0.000000	
3.228000	-4.155057	59.967911	-0.342052	1.333662	0.000000	-0.461425	-122.754033	845.463226	65.379201	1.373063	0.000000	-0.527979	0.000000	1.943888	0.000000	0.000000	1.453864	0.000000	
3.228500	-3.981970	59.794643	-0.375115	1.333922	0.000000	-0.461609	-122.219474	845.204513	65.107279	1.372585	0.000000	-0.527999	0.000000	1.950365	0.000000	0.000000	1.446969	0.000000	
3.229000	-3.811500	59.626464	-0.407984	1.334105	0.000000	-0.461782	-121.684917	844.923863	64.839353	1.372109	0.000000	-0.528020	0.000000	1.956449	0.000000	0.000000	1.440530	0.000000	
3.229500	-3.643909	59.463010	-0.440362	1.334212	0.000000	-0.461942	-121.150640	844.621684	64.575762	1.371633	0.000000	-0.528040	0.000000	1.962119	0.000000	0.000000	1.434559	0.000000	
3.230000	-3.479438	59.303918	-0.471956	1.334246	0.000000	-0.462091	-120.616912	844.298391	64.316826	1.371159	0.000000	-0.528060	0.000000	1.967351	0.000000	0.000000	1.429064	0.000000	
3.230500	-3.318313	59.148828	-0.502487	1.334207	0.000000	-0.462227	-120.083993	843.954406	64.062840	1.370685	0.000000	-0.528080	0.000000	1.972125	0.000000	0.000000	1.424055	0.000000	
3.231000	-3.160737	58.997384	-0.531681	1.334098	0.000000	-0.462351	-119.552134	843.590152	63.814079	1.370213	0.000000	-0.528100	0.000000	1.976420	0.000000	0.000000	1.419538	0.000000	
3.231500	-3.006896	58.849231	-0.559279	1.333919	0.000000	-0.462463	-119.021575	843.206056	63.570793	1.369741	0.000000	-0.528119	0.000000	1.980214	0.000000	0.000000	1.415520	0.000000	
3.232000	-2.856956	58.704019	-0.585035	1.333674	0.000000	-0.462562	-118.492543	842.802544	63.333205	1.369270	0.000000	-0.528139	0.000000	1.983486	0.000000	0.000000	1.412006	0.000000	
3.232500	-2.711066	58.561401	-0.608714	1.333364	0.000000	-0.462649	-117.965253	842.380041	63.101513	1.368800	0.000000	-0.528158	0.000000	1.986214	0.000000	0.000000	1.408999	0.000000	
3.233000	-2.569355	58.421036	-0.630098	1.332991	0.000000	-0.462723	-117.439909	841.938967	62.875889	1.368332	0.000000	-0.528178	0.000000	1.988376	0.000000	0.000000	1.406503	0.000000	
3.233500	-2.431935	58.282585	-0.648986	1.332558	0.000000	-0.462785	-116.916700	841.479742	62.656475	1.367864	0.000000	-0.528197	0.000000	1.989949	0.000000	0.000000	1.404518	0.000000	
3.234000	-2.298903	58.145715	-0.665192	1.332067	0.000000	-0.462835	-116.395803	841.002775	62.443385	1.367397	0.000000	-0.528215	0.000000	1.990909	0.000000	0.000000	1.403046	0.000000	
3.234500	-2.170336	58.010100	-0.678547	1.331521	0.000000	-0.462872	-115.877381	840.508471	62.236704	1.366931	0.000000	-0.528234	0.000000	1.991232	0.000000	0.000000	1.402085	0.000000	
3.235000	-2.046297	57.875417	-0.688904	1.330921	0.000000	-0.462897	-115.361585	839.997225	62.036489	1.366465	0.000000	-0.528253	0.000000	1.990891	0.000000	0.000000	1.401634	0.000000	
3.235500	-1.926833	57.741353	-0.696131	1.330272	0.000000	-0.462909	-114.848553	839.469423	61.842765	1.366001	0.000000	-0.528271	0.000000	1.989860	0.000000	0.000000	1.401690	0.000000	
